<mxfile host="app.diagrams.net" agent="Mozilla/5.0 (Windows NT 10.0; Win64; x64) AppleWebKit/537.36 (KHTML, like Gecko) Chrome/130.0.0.0 Safari/537.36" version="26.2.10">
  <diagram id="v6o0DWE4hbOOhTnBZozn" name="Page-3">
    <mxGraphModel dx="1113" dy="473" grid="1" gridSize="10" guides="1" tooltips="1" connect="1" arrows="1" fold="1" page="1" pageScale="1" pageWidth="850" pageHeight="1100" math="0" shadow="0">
      <root>
        <mxCell id="0" />
        <mxCell id="1" parent="0" />
        <mxCell id="tS09RRix7TfyH3BZMnXy-1" value="«interface»&lt;br&gt;&lt;b&gt;CustomerDiscount&lt;/b&gt;" style="html=1;whiteSpace=wrap;" parent="1" vertex="1">
          <mxGeometry x="510" y="844" width="130" height="50" as="geometry" />
        </mxCell>
        <mxCell id="tS09RRix7TfyH3BZMnXy-2" value="«interface»&lt;br&gt;&lt;b&gt;BillAmount&lt;/b&gt;&lt;b style=&quot;background-color: initial;&quot;&gt;Discount&lt;/b&gt;" style="html=1;whiteSpace=wrap;" parent="1" vertex="1">
          <mxGeometry x="92" y="844" width="130" height="50" as="geometry" />
        </mxCell>
        <mxCell id="tS09RRix7TfyH3BZMnXy-3" value="PerHundredBillAmountDiscountStrategy" style="swimlane;fontStyle=1;align=center;verticalAlign=top;childLayout=stackLayout;horizontal=1;startSize=26;horizontalStack=0;resizeParent=1;resizeParentMax=0;resizeLast=0;collapsible=1;marginBottom=0;whiteSpace=wrap;html=1;" parent="1" vertex="1">
          <mxGeometry x="30" y="927" width="270" height="70" as="geometry">
            <mxRectangle x="100" y="650" width="250" height="30" as="alternateBounds" />
          </mxGeometry>
        </mxCell>
        <mxCell id="tS09RRix7TfyH3BZMnXy-6" value="+ calculateDiscount(BillRequest): double&lt;div&gt;+ supports(BillRequest): boolean&lt;br&gt;&lt;/div&gt;" style="text;strokeColor=none;fillColor=none;align=left;verticalAlign=top;spacingLeft=4;spacingRight=4;overflow=hidden;rotatable=0;points=[[0,0.5],[1,0.5]];portConstraint=eastwest;whiteSpace=wrap;html=1;" parent="tS09RRix7TfyH3BZMnXy-3" vertex="1">
          <mxGeometry y="26" width="270" height="44" as="geometry" />
        </mxCell>
        <mxCell id="tS09RRix7TfyH3BZMnXy-9" value="" style="endArrow=block;dashed=1;endFill=0;endSize=12;html=1;rounded=0;exitX=0.455;exitY=-0.048;exitDx=0;exitDy=0;exitPerimeter=0;" parent="1" source="tS09RRix7TfyH3BZMnXy-3" target="tS09RRix7TfyH3BZMnXy-2" edge="1">
          <mxGeometry width="160" relative="1" as="geometry">
            <mxPoint x="312" y="954" as="sourcePoint" />
            <mxPoint x="472" y="954" as="targetPoint" />
          </mxGeometry>
        </mxCell>
        <mxCell id="tS09RRix7TfyH3BZMnXy-11" value="LoyaltyDiscountStrategy" style="swimlane;fontStyle=1;align=center;verticalAlign=top;childLayout=stackLayout;horizontal=1;startSize=26;horizontalStack=0;resizeParent=1;resizeParentMax=0;resizeLast=0;collapsible=1;marginBottom=0;whiteSpace=wrap;html=1;" parent="1" vertex="1">
          <mxGeometry x="192" y="1020" width="241" height="70" as="geometry">
            <mxRectangle x="100" y="650" width="250" height="30" as="alternateBounds" />
          </mxGeometry>
        </mxCell>
        <mxCell id="tS09RRix7TfyH3BZMnXy-12" value="+ calculateDiscount(BillRequest): double&lt;div&gt;+ supports(User): boolean&lt;br&gt;&lt;/div&gt;" style="text;strokeColor=none;fillColor=none;align=left;verticalAlign=top;spacingLeft=4;spacingRight=4;overflow=hidden;rotatable=0;points=[[0,0.5],[1,0.5]];portConstraint=eastwest;whiteSpace=wrap;html=1;" parent="tS09RRix7TfyH3BZMnXy-11" vertex="1">
          <mxGeometry y="26" width="241" height="44" as="geometry" />
        </mxCell>
        <mxCell id="tS09RRix7TfyH3BZMnXy-17" value="EmployeeDiscountStrategy" style="swimlane;fontStyle=1;align=center;verticalAlign=top;childLayout=stackLayout;horizontal=1;startSize=26;horizontalStack=0;resizeParent=1;resizeParentMax=0;resizeLast=0;collapsible=1;marginBottom=0;whiteSpace=wrap;html=1;" parent="1" vertex="1">
          <mxGeometry x="463" y="1020" width="230" height="70" as="geometry">
            <mxRectangle x="100" y="650" width="250" height="30" as="alternateBounds" />
          </mxGeometry>
        </mxCell>
        <mxCell id="tS09RRix7TfyH3BZMnXy-18" value="+ calculateDiscount(BillRequest): double&lt;div&gt;+ supports(User): boolean&lt;br&gt;&lt;/div&gt;" style="text;strokeColor=none;fillColor=none;align=left;verticalAlign=top;spacingLeft=4;spacingRight=4;overflow=hidden;rotatable=0;points=[[0,0.5],[1,0.5]];portConstraint=eastwest;whiteSpace=wrap;html=1;" parent="tS09RRix7TfyH3BZMnXy-17" vertex="1">
          <mxGeometry y="26" width="230" height="44" as="geometry" />
        </mxCell>
        <mxCell id="tS09RRix7TfyH3BZMnXy-20" value="AffiliateDiscountStrategy" style="swimlane;fontStyle=1;align=center;verticalAlign=top;childLayout=stackLayout;horizontal=1;startSize=26;horizontalStack=0;resizeParent=1;resizeParentMax=0;resizeLast=0;collapsible=1;marginBottom=0;whiteSpace=wrap;html=1;" parent="1" vertex="1">
          <mxGeometry x="620" y="940" width="230" height="70" as="geometry">
            <mxRectangle x="100" y="650" width="250" height="30" as="alternateBounds" />
          </mxGeometry>
        </mxCell>
        <mxCell id="tS09RRix7TfyH3BZMnXy-21" value="+ calculateDiscount(BillRequest): double&lt;div&gt;+ supports(User): boolean&lt;br&gt;&lt;/div&gt;" style="text;strokeColor=none;fillColor=none;align=left;verticalAlign=top;spacingLeft=4;spacingRight=4;overflow=hidden;rotatable=0;points=[[0,0.5],[1,0.5]];portConstraint=eastwest;whiteSpace=wrap;html=1;" parent="tS09RRix7TfyH3BZMnXy-20" vertex="1">
          <mxGeometry y="26" width="230" height="44" as="geometry" />
        </mxCell>
        <mxCell id="tS09RRix7TfyH3BZMnXy-24" value="" style="endArrow=none;dashed=1;endFill=0;endSize=12;html=1;rounded=0;exitX=0.5;exitY=0;exitDx=0;exitDy=0;" parent="1" source="tS09RRix7TfyH3BZMnXy-20" edge="1">
          <mxGeometry width="160" relative="1" as="geometry">
            <mxPoint x="770" y="870" as="sourcePoint" />
            <mxPoint x="578" y="920" as="targetPoint" />
            <Array as="points">
              <mxPoint x="735" y="920" />
            </Array>
          </mxGeometry>
        </mxCell>
        <mxCell id="tS09RRix7TfyH3BZMnXy-26" value="" style="endArrow=block;dashed=1;endFill=0;endSize=12;html=1;rounded=0;" parent="1" source="tS09RRix7TfyH3BZMnXy-17" target="tS09RRix7TfyH3BZMnXy-1" edge="1">
          <mxGeometry width="160" relative="1" as="geometry">
            <mxPoint x="574.5" y="1001" as="sourcePoint" />
            <mxPoint x="575.5" y="934" as="targetPoint" />
          </mxGeometry>
        </mxCell>
        <mxCell id="tS09RRix7TfyH3BZMnXy-30" value="" style="endArrow=none;dashed=1;endFill=0;endSize=12;html=1;rounded=0;exitX=0.905;exitY=-0.014;exitDx=0;exitDy=0;exitPerimeter=0;" parent="1" source="tS09RRix7TfyH3BZMnXy-11" edge="1">
          <mxGeometry width="160" relative="1" as="geometry">
            <mxPoint x="360" y="960" as="sourcePoint" />
            <mxPoint x="580" y="950" as="targetPoint" />
            <Array as="points">
              <mxPoint x="410" y="950" />
            </Array>
          </mxGeometry>
        </mxCell>
        <mxCell id="tS09RRix7TfyH3BZMnXy-31" value="BillAmountDiscountContext" style="swimlane;fontStyle=1;align=center;verticalAlign=top;childLayout=stackLayout;horizontal=1;startSize=26;horizontalStack=0;resizeParent=1;resizeParentMax=0;resizeLast=0;collapsible=1;marginBottom=0;whiteSpace=wrap;html=1;" parent="1" vertex="1">
          <mxGeometry x="16" y="724" width="280" height="84" as="geometry" />
        </mxCell>
        <mxCell id="tS09RRix7TfyH3BZMnXy-32" value="+ discountStrategies: List&amp;lt;BillAmountDiscount&amp;gt;" style="text;strokeColor=none;fillColor=none;align=left;verticalAlign=top;spacingLeft=4;spacingRight=4;overflow=hidden;rotatable=0;points=[[0,0.5],[1,0.5]];portConstraint=eastwest;whiteSpace=wrap;html=1;" parent="tS09RRix7TfyH3BZMnXy-31" vertex="1">
          <mxGeometry y="26" width="280" height="24" as="geometry" />
        </mxCell>
        <mxCell id="tS09RRix7TfyH3BZMnXy-33" value="" style="line;strokeWidth=1;fillColor=none;align=left;verticalAlign=middle;spacingTop=-1;spacingLeft=3;spacingRight=3;rotatable=0;labelPosition=right;points=[];portConstraint=eastwest;strokeColor=inherit;" parent="tS09RRix7TfyH3BZMnXy-31" vertex="1">
          <mxGeometry y="50" width="280" height="8" as="geometry" />
        </mxCell>
        <mxCell id="tS09RRix7TfyH3BZMnXy-34" value="+ applyDiscount(BillRequest): double" style="text;strokeColor=none;fillColor=none;align=left;verticalAlign=top;spacingLeft=4;spacingRight=4;overflow=hidden;rotatable=0;points=[[0,0.5],[1,0.5]];portConstraint=eastwest;whiteSpace=wrap;html=1;" parent="tS09RRix7TfyH3BZMnXy-31" vertex="1">
          <mxGeometry y="58" width="280" height="26" as="geometry" />
        </mxCell>
        <mxCell id="tS09RRix7TfyH3BZMnXy-35" value="CustomerDiscountContext" style="swimlane;fontStyle=1;align=center;verticalAlign=top;childLayout=stackLayout;horizontal=1;startSize=26;horizontalStack=0;resizeParent=1;resizeParentMax=0;resizeLast=0;collapsible=1;marginBottom=0;whiteSpace=wrap;html=1;" parent="1" vertex="1">
          <mxGeometry x="434" y="724" width="280" height="84" as="geometry" />
        </mxCell>
        <mxCell id="tS09RRix7TfyH3BZMnXy-36" value="+ discountStrategies: List&amp;lt;CustomerDiscount&amp;gt;" style="text;strokeColor=none;fillColor=none;align=left;verticalAlign=top;spacingLeft=4;spacingRight=4;overflow=hidden;rotatable=0;points=[[0,0.5],[1,0.5]];portConstraint=eastwest;whiteSpace=wrap;html=1;" parent="tS09RRix7TfyH3BZMnXy-35" vertex="1">
          <mxGeometry y="26" width="280" height="24" as="geometry" />
        </mxCell>
        <mxCell id="tS09RRix7TfyH3BZMnXy-37" value="" style="line;strokeWidth=1;fillColor=none;align=left;verticalAlign=middle;spacingTop=-1;spacingLeft=3;spacingRight=3;rotatable=0;labelPosition=right;points=[];portConstraint=eastwest;strokeColor=inherit;" parent="tS09RRix7TfyH3BZMnXy-35" vertex="1">
          <mxGeometry y="50" width="280" height="8" as="geometry" />
        </mxCell>
        <mxCell id="tS09RRix7TfyH3BZMnXy-38" value="+ applyDiscount(BillRequest): double" style="text;strokeColor=none;fillColor=none;align=left;verticalAlign=top;spacingLeft=4;spacingRight=4;overflow=hidden;rotatable=0;points=[[0,0.5],[1,0.5]];portConstraint=eastwest;whiteSpace=wrap;html=1;" parent="tS09RRix7TfyH3BZMnXy-35" vertex="1">
          <mxGeometry y="58" width="280" height="26" as="geometry" />
        </mxCell>
        <mxCell id="tS09RRix7TfyH3BZMnXy-39" value="" style="endArrow=diamondThin;endFill=1;endSize=24;html=1;rounded=0;" parent="1" source="tS09RRix7TfyH3BZMnXy-38" target="tS09RRix7TfyH3BZMnXy-1" edge="1">
          <mxGeometry width="160" relative="1" as="geometry">
            <mxPoint x="295" y="844" as="sourcePoint" />
            <mxPoint x="455" y="844" as="targetPoint" />
          </mxGeometry>
        </mxCell>
        <mxCell id="tS09RRix7TfyH3BZMnXy-40" value="" style="endArrow=diamondThin;endFill=1;endSize=24;html=1;rounded=0;" parent="1" source="tS09RRix7TfyH3BZMnXy-31" target="tS09RRix7TfyH3BZMnXy-2" edge="1">
          <mxGeometry width="160" relative="1" as="geometry">
            <mxPoint x="344" y="818" as="sourcePoint" />
            <mxPoint x="345" y="894" as="targetPoint" />
          </mxGeometry>
        </mxCell>
        <mxCell id="tS09RRix7TfyH3BZMnXy-42" value="DiscountCalculationService" style="swimlane;fontStyle=1;align=center;verticalAlign=top;childLayout=stackLayout;horizontal=1;startSize=26;horizontalStack=0;resizeParent=1;resizeParentMax=0;resizeLast=0;collapsible=1;marginBottom=0;whiteSpace=wrap;html=1;" parent="1" vertex="1">
          <mxGeometry x="196" y="579" width="330" height="108" as="geometry" />
        </mxCell>
        <mxCell id="tS09RRix7TfyH3BZMnXy-46" value="+ customerDiscountContext: CustomerDiscountContext" style="text;strokeColor=none;fillColor=none;align=left;verticalAlign=top;spacingLeft=4;spacingRight=4;overflow=hidden;rotatable=0;points=[[0,0.5],[1,0.5]];portConstraint=eastwest;whiteSpace=wrap;html=1;" parent="tS09RRix7TfyH3BZMnXy-42" vertex="1">
          <mxGeometry y="26" width="330" height="24" as="geometry" />
        </mxCell>
        <mxCell id="tS09RRix7TfyH3BZMnXy-43" value="+ billAmountDiscountContext: BillAmountDiscountContext" style="text;strokeColor=none;fillColor=none;align=left;verticalAlign=top;spacingLeft=4;spacingRight=4;overflow=hidden;rotatable=0;points=[[0,0.5],[1,0.5]];portConstraint=eastwest;whiteSpace=wrap;html=1;" parent="tS09RRix7TfyH3BZMnXy-42" vertex="1">
          <mxGeometry y="50" width="330" height="24" as="geometry" />
        </mxCell>
        <mxCell id="tS09RRix7TfyH3BZMnXy-44" value="" style="line;strokeWidth=1;fillColor=none;align=left;verticalAlign=middle;spacingTop=-1;spacingLeft=3;spacingRight=3;rotatable=0;labelPosition=right;points=[];portConstraint=eastwest;strokeColor=inherit;" parent="tS09RRix7TfyH3BZMnXy-42" vertex="1">
          <mxGeometry y="74" width="330" height="8" as="geometry" />
        </mxCell>
        <mxCell id="tS09RRix7TfyH3BZMnXy-47" value="+ calculateDiscountAmount(BillRequest): double" style="text;strokeColor=none;fillColor=none;align=left;verticalAlign=top;spacingLeft=4;spacingRight=4;overflow=hidden;rotatable=0;points=[[0,0.5],[1,0.5]];portConstraint=eastwest;whiteSpace=wrap;html=1;" parent="tS09RRix7TfyH3BZMnXy-42" vertex="1">
          <mxGeometry y="82" width="330" height="26" as="geometry" />
        </mxCell>
        <mxCell id="tS09RRix7TfyH3BZMnXy-48" value="" style="endArrow=diamondThin;endFill=1;endSize=24;html=1;rounded=0;exitX=0.009;exitY=0.25;exitDx=0;exitDy=0;exitPerimeter=0;" parent="1" source="tS09RRix7TfyH3BZMnXy-43" target="tS09RRix7TfyH3BZMnXy-31" edge="1">
          <mxGeometry width="160" relative="1" as="geometry">
            <mxPoint x="130" y="751" as="sourcePoint" />
            <mxPoint x="160" y="720" as="targetPoint" />
            <Array as="points">
              <mxPoint x="160" y="635" />
            </Array>
          </mxGeometry>
        </mxCell>
        <mxCell id="tS09RRix7TfyH3BZMnXy-49" value="" style="endArrow=diamondThin;endFill=1;endSize=24;html=1;rounded=0;entryX=0.5;entryY=0;entryDx=0;entryDy=0;" parent="1" source="tS09RRix7TfyH3BZMnXy-43" target="tS09RRix7TfyH3BZMnXy-35" edge="1">
          <mxGeometry width="160" relative="1" as="geometry">
            <mxPoint x="525" y="641" as="sourcePoint" />
            <mxPoint x="571" y="720" as="targetPoint" />
            <Array as="points">
              <mxPoint x="570" y="641" />
            </Array>
          </mxGeometry>
        </mxCell>
        <mxCell id="tS09RRix7TfyH3BZMnXy-50" value="BillRequest" style="swimlane;fontStyle=1;align=center;verticalAlign=top;childLayout=stackLayout;horizontal=1;startSize=26;horizontalStack=0;resizeParent=1;resizeParentMax=0;resizeLast=0;collapsible=1;marginBottom=0;whiteSpace=wrap;html=1;" parent="1" vertex="1">
          <mxGeometry x="32" y="56" width="160" height="130" as="geometry" />
        </mxCell>
        <mxCell id="tS09RRix7TfyH3BZMnXy-51" value="+ user: User" style="text;strokeColor=none;fillColor=none;align=left;verticalAlign=top;spacingLeft=4;spacingRight=4;overflow=hidden;rotatable=0;points=[[0,0.5],[1,0.5]];portConstraint=eastwest;whiteSpace=wrap;html=1;" parent="tS09RRix7TfyH3BZMnXy-50" vertex="1">
          <mxGeometry y="26" width="160" height="26" as="geometry" />
        </mxCell>
        <mxCell id="tS09RRix7TfyH3BZMnXy-56" value="+ items: List&amp;lt;Item&amp;gt;" style="text;strokeColor=none;fillColor=none;align=left;verticalAlign=top;spacingLeft=4;spacingRight=4;overflow=hidden;rotatable=0;points=[[0,0.5],[1,0.5]];portConstraint=eastwest;whiteSpace=wrap;html=1;" parent="tS09RRix7TfyH3BZMnXy-50" vertex="1">
          <mxGeometry y="52" width="160" height="26" as="geometry" />
        </mxCell>
        <mxCell id="tS09RRix7TfyH3BZMnXy-57" value="+ total: double" style="text;strokeColor=none;fillColor=none;align=left;verticalAlign=top;spacingLeft=4;spacingRight=4;overflow=hidden;rotatable=0;points=[[0,0.5],[1,0.5]];portConstraint=eastwest;whiteSpace=wrap;html=1;" parent="tS09RRix7TfyH3BZMnXy-50" vertex="1">
          <mxGeometry y="78" width="160" height="26" as="geometry" />
        </mxCell>
        <mxCell id="tS09RRix7TfyH3BZMnXy-58" value="+ nonGroceryTotal: double" style="text;strokeColor=none;fillColor=none;align=left;verticalAlign=top;spacingLeft=4;spacingRight=4;overflow=hidden;rotatable=0;points=[[0,0.5],[1,0.5]];portConstraint=eastwest;whiteSpace=wrap;html=1;" parent="tS09RRix7TfyH3BZMnXy-50" vertex="1">
          <mxGeometry y="104" width="160" height="26" as="geometry" />
        </mxCell>
        <mxCell id="tS09RRix7TfyH3BZMnXy-59" value="User" style="swimlane;fontStyle=1;align=center;verticalAlign=top;childLayout=stackLayout;horizontal=1;startSize=26;horizontalStack=0;resizeParent=1;resizeParentMax=0;resizeLast=0;collapsible=1;marginBottom=0;whiteSpace=wrap;html=1;" parent="1" vertex="1">
          <mxGeometry x="427" y="80" width="160" height="78" as="geometry" />
        </mxCell>
        <mxCell id="tS09RRix7TfyH3BZMnXy-60" value="+ userType: UserType" style="text;strokeColor=none;fillColor=none;align=left;verticalAlign=top;spacingLeft=4;spacingRight=4;overflow=hidden;rotatable=0;points=[[0,0.5],[1,0.5]];portConstraint=eastwest;whiteSpace=wrap;html=1;" parent="tS09RRix7TfyH3BZMnXy-59" vertex="1">
          <mxGeometry y="26" width="160" height="26" as="geometry" />
        </mxCell>
        <mxCell id="tS09RRix7TfyH3BZMnXy-63" value="+ customerSince: Date" style="text;strokeColor=none;fillColor=none;align=left;verticalAlign=top;spacingLeft=4;spacingRight=4;overflow=hidden;rotatable=0;points=[[0,0.5],[1,0.5]];portConstraint=eastwest;whiteSpace=wrap;html=1;" parent="tS09RRix7TfyH3BZMnXy-59" vertex="1">
          <mxGeometry y="52" width="160" height="26" as="geometry" />
        </mxCell>
        <mxCell id="tS09RRix7TfyH3BZMnXy-64" value="Item" style="swimlane;fontStyle=1;align=center;verticalAlign=top;childLayout=stackLayout;horizontal=1;startSize=26;horizontalStack=0;resizeParent=1;resizeParentMax=0;resizeLast=0;collapsible=1;marginBottom=0;whiteSpace=wrap;html=1;" parent="1" vertex="1">
          <mxGeometry x="427" y="220" width="160" height="104" as="geometry" />
        </mxCell>
        <mxCell id="tS09RRix7TfyH3BZMnXy-65" value="+ name: String" style="text;strokeColor=none;fillColor=none;align=left;verticalAlign=top;spacingLeft=4;spacingRight=4;overflow=hidden;rotatable=0;points=[[0,0.5],[1,0.5]];portConstraint=eastwest;whiteSpace=wrap;html=1;" parent="tS09RRix7TfyH3BZMnXy-64" vertex="1">
          <mxGeometry y="26" width="160" height="26" as="geometry" />
        </mxCell>
        <mxCell id="tS09RRix7TfyH3BZMnXy-66" value="+ price: double" style="text;strokeColor=none;fillColor=none;align=left;verticalAlign=top;spacingLeft=4;spacingRight=4;overflow=hidden;rotatable=0;points=[[0,0.5],[1,0.5]];portConstraint=eastwest;whiteSpace=wrap;html=1;" parent="tS09RRix7TfyH3BZMnXy-64" vertex="1">
          <mxGeometry y="52" width="160" height="26" as="geometry" />
        </mxCell>
        <mxCell id="tS09RRix7TfyH3BZMnXy-67" value="+ isGrocery: boolean" style="text;strokeColor=none;fillColor=none;align=left;verticalAlign=top;spacingLeft=4;spacingRight=4;overflow=hidden;rotatable=0;points=[[0,0.5],[1,0.5]];portConstraint=eastwest;whiteSpace=wrap;html=1;" parent="tS09RRix7TfyH3BZMnXy-64" vertex="1">
          <mxGeometry y="78" width="160" height="26" as="geometry" />
        </mxCell>
        <mxCell id="tS09RRix7TfyH3BZMnXy-68" value="«Enum»&lt;br&gt;&lt;b&gt;UserType&lt;/b&gt;" style="html=1;whiteSpace=wrap;" parent="1" vertex="1">
          <mxGeometry x="660" y="94" width="110" height="50" as="geometry" />
        </mxCell>
        <mxCell id="tS09RRix7TfyH3BZMnXy-69" value="" style="endArrow=diamondThin;endFill=1;endSize=24;html=1;rounded=0;" parent="1" source="tS09RRix7TfyH3BZMnXy-50" target="tS09RRix7TfyH3BZMnXy-64" edge="1">
          <mxGeometry width="160" relative="1" as="geometry">
            <mxPoint x="170" y="290" as="sourcePoint" />
            <mxPoint x="330" y="290" as="targetPoint" />
            <Array as="points">
              <mxPoint x="110" y="272" />
            </Array>
          </mxGeometry>
        </mxCell>
        <mxCell id="tS09RRix7TfyH3BZMnXy-70" value="" style="endArrow=diamondThin;endFill=1;endSize=24;html=1;rounded=0;" parent="1" source="tS09RRix7TfyH3BZMnXy-59" target="tS09RRix7TfyH3BZMnXy-68" edge="1">
          <mxGeometry width="160" relative="1" as="geometry">
            <mxPoint x="505" y="118.57" as="sourcePoint" />
            <mxPoint x="665" y="118.57" as="targetPoint" />
          </mxGeometry>
        </mxCell>
        <mxCell id="tS09RRix7TfyH3BZMnXy-72" value="" style="endArrow=diamondThin;endFill=1;endSize=24;html=1;rounded=0;" parent="1" source="tS09RRix7TfyH3BZMnXy-50" target="tS09RRix7TfyH3BZMnXy-59" edge="1">
          <mxGeometry width="160" relative="1" as="geometry">
            <mxPoint x="420" y="240" as="sourcePoint" />
            <mxPoint x="580" y="240" as="targetPoint" />
          </mxGeometry>
        </mxCell>
        <mxCell id="aIrdsEU-jt36RFeVO6t2-1" value="BillCalculationService" style="swimlane;fontStyle=1;align=center;verticalAlign=top;childLayout=stackLayout;horizontal=1;startSize=26;horizontalStack=0;resizeParent=1;resizeParentMax=0;resizeLast=0;collapsible=1;marginBottom=0;whiteSpace=wrap;html=1;" parent="1" vertex="1">
          <mxGeometry x="30" y="362" width="330" height="120" as="geometry" />
        </mxCell>
        <mxCell id="aIrdsEU-jt36RFeVO6t2-2" value="+ discountCalculationService: DiscountCalculationService" style="text;strokeColor=none;fillColor=none;align=left;verticalAlign=top;spacingLeft=4;spacingRight=4;overflow=hidden;rotatable=0;points=[[0,0.5],[1,0.5]];portConstraint=eastwest;whiteSpace=wrap;html=1;" parent="aIrdsEU-jt36RFeVO6t2-1" vertex="1">
          <mxGeometry y="26" width="330" height="24" as="geometry" />
        </mxCell>
        <mxCell id="aIrdsEU-jt36RFeVO6t2-3" value="+ exchangeRateService: ExchangeRateService" style="text;strokeColor=none;fillColor=none;align=left;verticalAlign=top;spacingLeft=4;spacingRight=4;overflow=hidden;rotatable=0;points=[[0,0.5],[1,0.5]];portConstraint=eastwest;whiteSpace=wrap;html=1;" parent="aIrdsEU-jt36RFeVO6t2-1" vertex="1">
          <mxGeometry y="50" width="330" height="24" as="geometry" />
        </mxCell>
        <mxCell id="aIrdsEU-jt36RFeVO6t2-4" value="" style="line;strokeWidth=1;fillColor=none;align=left;verticalAlign=middle;spacingTop=-1;spacingLeft=3;spacingRight=3;rotatable=0;labelPosition=right;points=[];portConstraint=eastwest;strokeColor=inherit;" parent="aIrdsEU-jt36RFeVO6t2-1" vertex="1">
          <mxGeometry y="74" width="330" height="8" as="geometry" />
        </mxCell>
        <mxCell id="aIrdsEU-jt36RFeVO6t2-6" value="+ calculatePayableBill(BillRequest): BillResponse&lt;div&gt;+ validateBill(BillRequest): boolean&lt;/div&gt;" style="text;strokeColor=none;fillColor=none;align=left;verticalAlign=top;spacingLeft=4;spacingRight=4;overflow=hidden;rotatable=0;points=[[0,0.5],[1,0.5]];portConstraint=eastwest;whiteSpace=wrap;html=1;" parent="aIrdsEU-jt36RFeVO6t2-1" vertex="1">
          <mxGeometry y="82" width="330" height="38" as="geometry" />
        </mxCell>
        <mxCell id="aIrdsEU-jt36RFeVO6t2-7" value="ExchangeRateService" style="swimlane;fontStyle=1;align=center;verticalAlign=top;childLayout=stackLayout;horizontal=1;startSize=26;horizontalStack=0;resizeParent=1;resizeParentMax=0;resizeLast=0;collapsible=1;marginBottom=0;whiteSpace=wrap;html=1;" parent="1" vertex="1">
          <mxGeometry x="453" y="500" width="330" height="60" as="geometry" />
        </mxCell>
        <mxCell id="aIrdsEU-jt36RFeVO6t2-10" value="" style="line;strokeWidth=1;fillColor=none;align=left;verticalAlign=middle;spacingTop=-1;spacingLeft=3;spacingRight=3;rotatable=0;labelPosition=right;points=[];portConstraint=eastwest;strokeColor=inherit;" parent="aIrdsEU-jt36RFeVO6t2-7" vertex="1">
          <mxGeometry y="26" width="330" height="8" as="geometry" />
        </mxCell>
        <mxCell id="aIrdsEU-jt36RFeVO6t2-11" value="+ convert(fromCurrent,toCurrency,amount): double" style="text;strokeColor=none;fillColor=none;align=left;verticalAlign=top;spacingLeft=4;spacingRight=4;overflow=hidden;rotatable=0;points=[[0,0.5],[1,0.5]];portConstraint=eastwest;whiteSpace=wrap;html=1;" parent="aIrdsEU-jt36RFeVO6t2-7" vertex="1">
          <mxGeometry y="34" width="330" height="26" as="geometry" />
        </mxCell>
        <mxCell id="aIrdsEU-jt36RFeVO6t2-13" value="" style="endArrow=diamondThin;endFill=1;endSize=24;html=1;rounded=0;exitX=0.333;exitY=1;exitDx=0;exitDy=0;exitPerimeter=0;" parent="1" source="aIrdsEU-jt36RFeVO6t2-6" target="tS09RRix7TfyH3BZMnXy-42" edge="1">
          <mxGeometry width="160" relative="1" as="geometry">
            <mxPoint x="164.97000000000003" y="514" as="sourcePoint" />
            <mxPoint x="202" y="695" as="targetPoint" />
            <Array as="points">
              <mxPoint x="140" y="550" />
              <mxPoint x="360" y="550" />
            </Array>
          </mxGeometry>
        </mxCell>
        <mxCell id="aIrdsEU-jt36RFeVO6t2-14" value="" style="endArrow=diamondThin;endFill=1;endSize=24;html=1;rounded=0;entryX=0;entryY=0.038;entryDx=0;entryDy=0;entryPerimeter=0;exitX=0.836;exitY=1;exitDx=0;exitDy=0;exitPerimeter=0;" parent="1" source="aIrdsEU-jt36RFeVO6t2-6" target="aIrdsEU-jt36RFeVO6t2-11" edge="1">
          <mxGeometry width="160" relative="1" as="geometry">
            <mxPoint x="305" y="510" as="sourcePoint" />
            <mxPoint x="532" y="601.5" as="targetPoint" />
            <Array as="points">
              <mxPoint x="306" y="535" />
            </Array>
          </mxGeometry>
        </mxCell>
        <mxCell id="QYaQdk2UmfD9AjV1nWe8-1" value="ExchangeRateClient" style="swimlane;fontStyle=1;align=center;verticalAlign=top;childLayout=stackLayout;horizontal=1;startSize=26;horizontalStack=0;resizeParent=1;resizeParentMax=0;resizeLast=0;collapsible=1;marginBottom=0;whiteSpace=wrap;html=1;" vertex="1" parent="1">
          <mxGeometry x="463" y="377" width="330" height="60" as="geometry" />
        </mxCell>
        <mxCell id="QYaQdk2UmfD9AjV1nWe8-2" value="" style="line;strokeWidth=1;fillColor=none;align=left;verticalAlign=middle;spacingTop=-1;spacingLeft=3;spacingRight=3;rotatable=0;labelPosition=right;points=[];portConstraint=eastwest;strokeColor=inherit;" vertex="1" parent="QYaQdk2UmfD9AjV1nWe8-1">
          <mxGeometry y="26" width="330" height="8" as="geometry" />
        </mxCell>
        <mxCell id="QYaQdk2UmfD9AjV1nWe8-3" value="+ getRates(fromCurrent): double" style="text;strokeColor=none;fillColor=none;align=left;verticalAlign=top;spacingLeft=4;spacingRight=4;overflow=hidden;rotatable=0;points=[[0,0.5],[1,0.5]];portConstraint=eastwest;whiteSpace=wrap;html=1;" vertex="1" parent="QYaQdk2UmfD9AjV1nWe8-1">
          <mxGeometry y="34" width="330" height="26" as="geometry" />
        </mxCell>
        <mxCell id="QYaQdk2UmfD9AjV1nWe8-4" value="" style="endArrow=diamondThin;endFill=1;endSize=24;html=1;rounded=0;entryX=0.473;entryY=0.962;entryDx=0;entryDy=0;entryPerimeter=0;" edge="1" parent="1" source="aIrdsEU-jt36RFeVO6t2-7" target="QYaQdk2UmfD9AjV1nWe8-3">
          <mxGeometry width="160" relative="1" as="geometry">
            <mxPoint x="610" y="510" as="sourcePoint" />
            <mxPoint x="620" y="475" as="targetPoint" />
            <Array as="points">
              <mxPoint x="619" y="480" />
            </Array>
          </mxGeometry>
        </mxCell>
      </root>
    </mxGraphModel>
  </diagram>
</mxfile>
